<svg id="visual" viewBox="0 0 900 600" width="900" height="600" xmlns="http://www.w3.org/2000/svg" xmlns:xlink="http://www.w3.org/1999/xlink" version="1.1"><path d="M0 85L82 121L164 127L245 85L327 139L409 163L491 121L573 85L655 97L736 145L818 97L900 79L900 0L818 0L736 0L655 0L573 0L491 0L409 0L327 0L245 0L164 0L82 0L0 0Z" fill="#00cc8e"></path><path d="M0 151L82 229L164 193L245 169L327 175L409 223L491 181L573 217L655 169L736 229L818 223L900 133L900 77L818 95L736 143L655 95L573 83L491 119L409 161L327 137L245 83L164 125L82 119L0 83Z" fill="#00b98a"></path><path d="M0 265L82 349L164 457L245 259L327 319L409 361L491 451L573 427L655 337L736 415L818 439L900 349L900 131L818 221L736 227L655 167L573 215L491 179L409 221L327 173L245 167L164 191L82 227L0 149Z" fill="#00a784"></path><path d="M0 547L82 529L164 565L245 499L327 499L409 517L491 565L573 565L655 553L736 499L818 565L900 529L900 347L818 437L736 413L655 335L573 425L491 449L409 359L327 317L245 257L164 455L82 347L0 263Z" fill="#00957c"></path><path d="M0 601L82 601L164 601L245 601L327 601L409 601L491 601L573 601L655 601L736 601L818 601L900 601L900 527L818 563L736 497L655 551L573 563L491 563L409 515L327 497L245 497L164 563L82 527L0 545Z" fill="#038373"></path></svg>